<svg width="32" height="32" viewBox="0 0 32 32" fill="none" xmlns="http://www.w3.org/2000/svg">
<rect x="0.5" y="0.5" width="31" height="31" rx="15.5" stroke="white"/>
<path d="M8.91675 21.8333C9.24827 21.8333 9.56621 21.965 9.80063 22.1995C10.0351 22.4339 10.1667 22.7518 10.1667 23.0833C10.1667 23.4149 10.0351 23.7328 9.80063 23.9672C9.56621 24.2016 9.24827 24.3333 8.91675 24.3333C8.58523 24.3333 8.26729 24.2016 8.03286 23.9672C7.79844 23.7328 7.66675 23.4149 7.66675 23.0833C7.66675 22.7518 7.79844 22.4339 8.03286 22.1995C8.26729 21.965 8.58523 21.8333 8.91675 21.8333ZM13.0834 19.3333C13.6359 19.3333 14.1659 19.5528 14.5566 19.9435C14.9473 20.3342 15.1667 20.8641 15.1667 21.4167C15.1667 21.9692 14.9473 22.4991 14.5566 22.8898C14.1659 23.2805 13.6359 23.5 13.0834 23.5C12.5309 23.5 12.001 23.2805 11.6103 22.8898C11.2196 22.4991 11.0001 21.9692 11.0001 21.4167C11.0001 20.8641 11.2196 20.3342 11.6103 19.9435C12.001 19.5528 12.5309 19.3333 13.0834 19.3333ZM18.0834 18.5C17.0917 18.5 16.1917 18.0833 15.5834 17.375C14.9751 18.0833 14.0751 18.5 13.0834 18.5C11.4501 18.5 10.0917 17.325 9.80841 15.7833C9.17908 15.54 8.63791 15.1122 8.25577 14.5561C7.87363 14 7.66832 13.3414 7.66675 12.6667C7.66675 11.7826 8.01794 10.9348 8.64306 10.3096C9.26818 9.68452 10.116 9.33333 11.0001 9.33333L11.6417 9.39167C12.2501 8.84167 13.0417 8.5 13.9167 8.5C14.9084 8.5 15.8084 8.91667 16.4167 9.625C17.0251 8.91667 17.9251 8.5 18.9167 8.5C20.5501 8.5 21.9084 9.675 22.1917 11.2167C22.8211 11.46 23.3623 11.8878 23.7444 12.4439C24.1265 13 24.3318 13.6586 24.3334 14.3333C24.3334 15.2174 23.9822 16.0652 23.3571 16.6904C22.732 17.3155 21.8841 17.6667 21.0001 17.6667L20.3584 17.6083C19.7501 18.1583 18.9584 18.5 18.0834 18.5ZM11.0001 11C10.5581 11 10.1341 11.1756 9.82157 11.4882C9.50901 11.8007 9.33341 12.2246 9.33341 12.6667C9.33341 13.1087 9.50901 13.5326 9.82157 13.8452C10.1341 14.1577 10.5581 14.3333 11.0001 14.3333C11.2751 14.3333 11.5334 14.2667 11.7667 14.15C11.541 14.4409 11.4179 14.7984 11.4167 15.1667C11.4167 15.6087 11.5923 16.0326 11.9049 16.3452C12.2175 16.6577 12.6414 16.8333 13.0834 16.8333C13.5834 16.8333 14.0334 16.6083 14.3334 16.2583L15.5584 14.8583L16.8334 16.2833C17.1501 16.6167 17.5917 16.8333 18.0834 16.8333C18.9167 16.8333 19.6084 16.2167 19.7501 15.4167C20.0334 15.775 20.4917 16 21.0001 16C21.4421 16 21.866 15.8244 22.1786 15.5118C22.4912 15.1993 22.6667 14.7754 22.6667 14.3333C22.6667 13.8913 22.4912 13.4674 22.1786 13.1548C21.866 12.8423 21.4421 12.6667 21.0001 12.6667C20.7251 12.6667 20.4667 12.7333 20.2334 12.85C20.4592 12.5591 20.5823 12.2016 20.5834 11.8333C20.5834 11.3913 20.4078 10.9674 20.0953 10.6548C19.7827 10.3423 19.3588 10.1667 18.9167 10.1667C18.4251 10.1667 17.9834 10.3833 17.6667 10.7167L16.3917 12.1417L15.1667 10.7417C14.8667 10.3917 14.4167 10.1667 13.9167 10.1667C13.0834 10.1667 12.3917 10.7833 12.2501 11.5833C11.9667 11.225 11.5084 11 11.0001 11ZM13.0834 20.5833C12.8624 20.5833 12.6504 20.6711 12.4942 20.8274C12.3379 20.9837 12.2501 21.1957 12.2501 21.4167C12.2501 21.6377 12.3379 21.8496 12.4942 22.0059C12.6504 22.1622 12.8624 22.25 13.0834 22.25C13.3044 22.25 13.5164 22.1622 13.6727 22.0059C13.829 21.8496 13.9167 21.6377 13.9167 21.4167C13.9167 21.1957 13.829 20.9837 13.6727 20.8274C13.5164 20.6711 13.3044 20.5833 13.0834 20.5833Z" fill="white"/>
</svg>
