<svg width="33" height="33" viewBox="0 0 33 33" fill="none" xmlns="http://www.w3.org/2000/svg">
<path d="M10.4332 3.83331C10.4332 3.5681 10.3278 3.31374 10.1403 3.12621C9.95273 2.93867 9.69838 2.83331 9.43316 2.83331C9.16794 2.83331 8.91359 2.93867 8.72605 3.12621C8.53852 3.31374 8.43316 3.5681 8.43316 3.83331V5.93998C6.51316 6.09331 5.25449 6.46931 4.32916 7.39598C3.40249 8.32131 3.02649 9.58131 2.87183 11.5H29.3278C29.1732 9.57998 28.7972 8.32131 27.8705 7.39598C26.9452 6.46931 25.6852 6.09331 23.7665 5.93865V3.83331C23.7665 3.5681 23.6611 3.31374 23.4736 3.12621C23.2861 2.93867 23.0317 2.83331 22.7665 2.83331C22.5013 2.83331 22.2469 2.93867 22.0594 3.12621C21.8718 3.31374 21.7665 3.5681 21.7665 3.83331V5.85065C20.8798 5.83331 19.8852 5.83331 18.7665 5.83331H13.4332C12.3145 5.83331 11.3198 5.83331 10.4332 5.85065V3.83331Z" fill="#7E7E7E"/>
<path fill-rule="evenodd" clip-rule="evenodd" d="M2.7666 16.5C2.7666 15.3813 2.7666 14.3867 2.78393 13.5H29.4159C29.4333 14.3867 29.4333 15.3813 29.4333 16.5V19.1667C29.4333 24.1947 29.4333 26.7093 27.8706 28.2707C26.3079 29.832 23.7946 29.8333 18.7666 29.8333H13.4333C8.40527 29.8333 5.8906 29.8333 4.32927 28.2707C2.76793 26.708 2.7666 24.1947 2.7666 19.1667V16.5ZM22.7666 19.1667C23.1202 19.1667 23.4594 19.0262 23.7094 18.7761C23.9595 18.5261 24.0999 18.187 24.0999 17.8333C24.0999 17.4797 23.9595 17.1406 23.7094 16.8905C23.4594 16.6405 23.1202 16.5 22.7666 16.5C22.413 16.5 22.0738 16.6405 21.8238 16.8905C21.5737 17.1406 21.4333 17.4797 21.4333 17.8333C21.4333 18.187 21.5737 18.5261 21.8238 18.7761C22.0738 19.0262 22.413 19.1667 22.7666 19.1667ZM22.7666 24.5C23.1202 24.5 23.4594 24.3595 23.7094 24.1095C23.9595 23.8594 24.0999 23.5203 24.0999 23.1667C24.0999 22.813 23.9595 22.4739 23.7094 22.2239C23.4594 21.9738 23.1202 21.8333 22.7666 21.8333C22.413 21.8333 22.0738 21.9738 21.8238 22.2239C21.5737 22.4739 21.4333 22.813 21.4333 23.1667C21.4333 23.5203 21.5737 23.8594 21.8238 24.1095C22.0738 24.3595 22.413 24.5 22.7666 24.5ZM17.4333 17.8333C17.4333 18.187 17.2928 18.5261 17.0427 18.7761C16.7927 19.0262 16.4536 19.1667 16.0999 19.1667C15.7463 19.1667 15.4072 19.0262 15.1571 18.7761C14.9071 18.5261 14.7666 18.187 14.7666 17.8333C14.7666 17.4797 14.9071 17.1406 15.1571 16.8905C15.4072 16.6405 15.7463 16.5 16.0999 16.5C16.4536 16.5 16.7927 16.6405 17.0427 16.8905C17.2928 17.1406 17.4333 17.4797 17.4333 17.8333ZM17.4333 23.1667C17.4333 23.5203 17.2928 23.8594 17.0427 24.1095C16.7927 24.3595 16.4536 24.5 16.0999 24.5C15.7463 24.5 15.4072 24.3595 15.1571 24.1095C14.9071 23.8594 14.7666 23.5203 14.7666 23.1667C14.7666 22.813 14.9071 22.4739 15.1571 22.2239C15.4072 21.9738 15.7463 21.8333 16.0999 21.8333C16.4536 21.8333 16.7927 21.9738 17.0427 22.2239C17.2928 22.4739 17.4333 22.813 17.4333 23.1667ZM9.43327 19.1667C9.78689 19.1667 10.126 19.0262 10.3761 18.7761C10.6261 18.5261 10.7666 18.187 10.7666 17.8333C10.7666 17.4797 10.6261 17.1406 10.3761 16.8905C10.126 16.6405 9.78689 16.5 9.43327 16.5C9.07965 16.5 8.74051 16.6405 8.49046 16.8905C8.24041 17.1406 8.09993 17.4797 8.09993 17.8333C8.09993 18.187 8.24041 18.5261 8.49046 18.7761C8.74051 19.0262 9.07965 19.1667 9.43327 19.1667ZM9.43327 24.5C9.78689 24.5 10.126 24.3595 10.3761 24.1095C10.6261 23.8594 10.7666 23.5203 10.7666 23.1667C10.7666 22.813 10.6261 22.4739 10.3761 22.2239C10.126 21.9738 9.78689 21.8333 9.43327 21.8333C9.07965 21.8333 8.74051 21.9738 8.49046 22.2239C8.24041 22.4739 8.09993 22.813 8.09993 23.1667C8.09993 23.5203 8.24041 23.8594 8.49046 24.1095C8.74051 24.3595 9.07965 24.5 9.43327 24.5Z" fill="#7E7E7E"/>
</svg>
