<svg width="33" height="32" viewBox="0 0 33 32" fill="none" xmlns="http://www.w3.org/2000/svg">
<path d="M5.49976 9.33333H26.8331M13.4998 14.6667V22.6667M18.8331 14.6667V22.6667M6.83309 9.33333L8.16642 25.3333C8.16642 26.0406 8.44737 26.7189 8.94747 27.219C9.44757 27.719 10.1258 28 10.8331 28H21.4998C22.207 28 22.8853 27.719 23.3854 27.219C23.8855 26.7189 24.1664 26.0406 24.1664 25.3333L25.4998 9.33333M12.1664 9.33333V5.33333C12.1664 4.97971 12.3069 4.64057 12.5569 4.39052C12.807 4.14048 13.1461 4 13.4998 4H18.8331C19.1867 4 19.5258 4.14048 19.7759 4.39052C20.0259 4.64057 20.1664 4.97971 20.1664 5.33333V9.33333" stroke="#7E7E7E" stroke-width="2" stroke-linecap="round" stroke-linejoin="round"/>
</svg>
