<svg width="33" height="32" viewBox="0 0 33 32" fill="none" xmlns="http://www.w3.org/2000/svg">
<path d="M7.49992 25.3333H9.39992L22.4333 12.3L20.5333 10.4L7.49992 23.4333V25.3333ZM6.16659 28C5.78881 28 5.47236 27.872 5.21725 27.616C4.96214 27.36 4.83414 27.0436 4.83325 26.6667V23.4333C4.83325 23.0778 4.89992 22.7387 5.03325 22.416C5.16659 22.0933 5.35547 21.8102 5.59992 21.5667L22.4333 4.76667C22.6999 4.52222 22.9946 4.33333 23.3173 4.2C23.6399 4.06667 23.9786 4 24.3333 4C24.6879 4 25.0324 4.06667 25.3666 4.2C25.7008 4.33333 25.9897 4.53333 26.2333 4.8L28.0666 6.66667C28.3333 6.91111 28.5275 7.2 28.6493 7.53333C28.771 7.86667 28.8324 8.2 28.8333 8.53333C28.8333 8.88889 28.7719 9.228 28.6493 9.55067C28.5266 9.87333 28.3324 10.1676 28.0666 10.4333L11.2666 27.2333C11.0221 27.4778 10.7386 27.6667 10.4159 27.8C10.0933 27.9333 9.75459 28 9.39992 28H6.16659ZM21.4666 11.3667L20.5333 10.4L22.4333 12.3L21.4666 11.3667Z" fill="#7E7E7E"/>
</svg>
