<svg width="33" height="33" viewBox="0 0 33 33" fill="none" xmlns="http://www.w3.org/2000/svg">
<path d="M30.2782 16.2812L17.4063 3.41874C17.3136 3.32587 17.2035 3.2522 17.0823 3.20193C16.9612 3.15167 16.8312 3.12579 16.7 3.12579C16.5688 3.12579 16.4389 3.15167 16.3178 3.20193C16.1966 3.2522 16.0865 3.32587 15.9938 3.41874L3.12192 16.2812C2.74692 16.6562 2.53442 17.1656 2.53442 17.6969C2.53442 18.8 3.4313 19.6969 4.53442 19.6969H5.89067V28.875C5.89067 29.4281 6.33755 29.875 6.89067 29.875H14.7V22.875H18.2V29.875H26.5094C27.0625 29.875 27.5094 29.4281 27.5094 28.875V19.6969H28.8657C29.3969 19.6969 29.9063 19.4875 30.2813 19.1094C31.0594 18.3281 31.0594 17.0625 30.2782 16.2812Z" fill="#6C2727"/>
</svg>
