<svg width="33" height="32" viewBox="0 0 33 32" fill="none" xmlns="http://www.w3.org/2000/svg">
<path d="M27.1667 24H5.83341V10.6666H27.1667V24ZM16.5001 7.99998L13.8334 5.33331H5.83341C5.12617 5.33331 4.44789 5.61426 3.9478 6.11436C3.4477 6.61446 3.16675 7.29274 3.16675 7.99998V24C3.16675 24.7072 3.4477 25.3855 3.9478 25.8856C4.44789 26.3857 5.12617 26.6666 5.83341 26.6666H27.1667C28.6467 26.6666 29.8334 25.48 29.8334 24V10.6666C29.8334 9.9594 29.5525 9.28113 29.0524 8.78103C28.5523 8.28093 27.874 7.99998 27.1667 7.99998H16.5001ZM15.1667 18.6666V16H20.5001V12L25.8334 17.3333L20.5001 22.6666V18.6666H15.1667Z" fill="#7E7E7E"/>
</svg>
