<svg width="33" height="33" viewBox="0 0 33 33" fill="none" xmlns="http://www.w3.org/2000/svg">
<path fill-rule="evenodd" clip-rule="evenodd" d="M28.0733 14.7867L27.3826 17.3627C26.576 20.3693 26.1733 21.8733 25.26 22.848C24.5393 23.6176 23.6067 24.1563 22.58 24.396C22.4511 24.4262 22.32 24.4493 22.1866 24.4653C20.9666 24.616 19.4773 24.2173 16.768 23.492C13.7613 22.6853 12.2573 22.2827 11.2826 21.3693C10.5128 20.6483 9.97414 19.7152 9.73463 18.688C9.43063 17.3867 9.83329 15.884 10.64 12.8773L11.3293 10.3013L11.6546 9.09468C12.2613 6.87334 12.6693 5.65068 13.452 4.81468C14.1728 4.04561 15.1054 3.5074 16.132 3.26801C17.4333 2.96401 18.9373 3.36668 21.9453 4.17335C24.9506 4.97868 26.4546 5.38134 27.4293 6.29334C28.1993 7.01475 28.738 7.94835 28.9773 8.97601C29.2813 10.2773 28.8786 11.78 28.0733 14.7867ZM15.0346 13.5733C15.0687 13.4465 15.1274 13.3276 15.2074 13.2234C15.2874 13.1192 15.3871 13.0318 15.5009 12.9662C15.6147 12.9005 15.7403 12.858 15.8705 12.8409C16.0008 12.8238 16.1331 12.8326 16.26 12.8667L22.7 14.5933C22.8302 14.6242 22.9528 14.6809 23.0607 14.7601C23.1686 14.8392 23.2596 14.9392 23.3281 15.0541C23.3966 15.1691 23.4414 15.2966 23.4598 15.4291C23.4781 15.5617 23.4697 15.6966 23.435 15.8258C23.4003 15.955 23.34 16.076 23.2577 16.1815C23.1753 16.287 23.0727 16.3749 22.9558 16.44C22.8389 16.5051 22.7101 16.5461 22.5771 16.5605C22.444 16.575 22.3094 16.5625 22.1813 16.524L15.7413 14.7987C15.4854 14.7299 15.2672 14.5624 15.1347 14.3329C15.0022 14.1034 14.9662 13.8294 15.0346 13.5733ZM14 17.4387C14.0687 17.1827 14.2362 16.9646 14.4657 16.8321C14.6952 16.6996 14.9679 16.6636 15.224 16.732L19.088 17.768C19.2188 17.7982 19.3422 17.8544 19.4508 17.9334C19.5594 18.0123 19.6511 18.1122 19.7202 18.2273C19.7894 18.3424 19.8347 18.4703 19.8533 18.6032C19.872 18.7362 19.8637 18.8715 19.829 19.0012C19.7942 19.1309 19.7337 19.2523 19.6511 19.3581C19.5684 19.4639 19.4653 19.552 19.3478 19.617C19.2304 19.6821 19.1011 19.7229 18.9675 19.7369C18.834 19.751 18.699 19.7379 18.5706 19.6987L14.7066 18.664C14.5798 18.63 14.4608 18.5713 14.3566 18.4913C14.2525 18.4113 14.1651 18.3115 14.0994 18.1977C14.0338 18.084 13.9913 17.9584 13.9742 17.8281C13.9571 17.6979 13.9659 17.5655 14 17.4387Z" fill="#7E7E7E"/>
<path opacity="0.5" d="M22.1867 24.4667C21.9078 25.32 21.418 26.0891 20.7627 26.7027C19.788 27.616 18.284 28.0187 15.2773 28.824C12.2707 29.6293 10.7667 30.0333 9.46667 29.7293C8.43949 29.4898 7.50639 28.9511 6.78534 28.1813C5.87201 27.2067 5.46801 25.7027 4.66267 22.696L3.97334 20.12C3.16667 17.1133 2.76401 15.6093 3.06667 14.3093C3.30656 13.282 3.84574 12.3489 4.61601 11.628C5.59067 10.7147 7.09467 10.312 10.1013 9.50532C10.6685 9.35243 11.1862 9.2151 11.6547 9.09332L11.3293 10.3013L10.64 12.8773C9.83334 15.884 9.43067 17.3867 9.73334 18.688C9.97322 19.7153 10.5124 20.6485 11.2827 21.3693C12.2573 22.2827 13.7613 22.6853 16.768 23.492C19.4773 24.2173 20.9667 24.6173 22.1867 24.4667Z" fill="#7E7E7E"/>
</svg>
