<svg width="32" height="32" viewBox="0 0 32 32" fill="none" xmlns="http://www.w3.org/2000/svg">
<rect x="0.5" y="0.5" width="31" height="31" rx="15.5" stroke="white"/>
<g clip-path="url(#clip0_365_17009)">
<path d="M22 11V13C22 13.2652 21.8946 13.5196 21.7071 13.7071C21.5196 13.8946 21.2652 14 21 14C20.7348 14 20.4804 13.8946 20.2929 13.7071C20.1054 13.5196 20 13.2652 20 13V12H17V20H18C18.2652 20 18.5196 20.1054 18.7071 20.2929C18.8946 20.4804 19 20.7348 19 21C19 21.2652 18.8946 21.5196 18.7071 21.7071C18.5196 21.8946 18.2652 22 18 22H14C13.7348 22 13.4804 21.8946 13.2929 21.7071C13.1054 21.5196 13 21.2652 13 21C13 20.7348 13.1054 20.4804 13.2929 20.2929C13.4804 20.1054 13.7348 20 14 20H15V12H12V13C12 13.2652 11.8946 13.5196 11.7071 13.7071C11.5196 13.8946 11.2652 14 11 14C10.7348 14 10.4804 13.8946 10.2929 13.7071C10.1054 13.5196 10 13.2652 10 13V11C10 10.7348 10.1054 10.4804 10.2929 10.2929C10.4804 10.1054 10.7348 10 11 10H21C21.2652 10 21.5196 10.1054 21.7071 10.2929C21.8946 10.4804 22 10.7348 22 11Z" fill="white"/>
</g>
<defs>
<clipPath id="clip0_365_17009">
<rect width="12" height="12" fill="white" transform="translate(10 10)"/>
</clipPath>
</defs>
</svg>
