<svg width="33" height="33" viewBox="0 0 33 33" fill="none" xmlns="http://www.w3.org/2000/svg">
<path fill-rule="evenodd" clip-rule="evenodd" d="M2.8999 6.61765C2.8999 5.52558 3.33372 4.47824 4.10593 3.70603C4.87814 2.93382 5.92548 2.5 7.01755 2.5H10.2491C10.6859 2.5 11.1048 2.67353 11.4137 2.98241C11.7226 3.2913 11.8961 3.71023 11.8961 4.14706C11.8961 4.58389 11.7226 5.00282 11.4137 5.31171C11.1048 5.62059 10.6859 5.79412 10.2491 5.79412H7.01755C6.79914 5.79412 6.58967 5.88088 6.43523 6.03532C6.28078 6.18977 6.19402 6.39923 6.19402 6.61765V10.3235C6.19402 10.7604 6.02049 11.1793 5.71161 11.4882C5.40272 11.7971 4.98379 11.9706 4.54696 11.9706C4.11013 11.9706 3.6912 11.7971 3.38231 11.4882C3.07343 11.1793 2.8999 10.7604 2.8999 10.3235V6.61765ZM21.4293 4.14706C21.4293 3.71023 21.6028 3.2913 21.9117 2.98241C22.2206 2.67353 22.6395 2.5 23.0764 2.5H26.7823C27.8743 2.5 28.9217 2.93382 29.6939 3.70603C30.4661 4.47824 30.8999 5.52558 30.8999 6.61765V10.3235C30.8999 10.7604 30.7264 11.1793 30.4175 11.4882C30.1086 11.7971 29.6897 11.9706 29.2528 11.9706C28.816 11.9706 28.3971 11.7971 28.0882 11.4882C27.7793 11.1793 27.6058 10.7604 27.6058 10.3235V6.61765C27.6058 6.39923 27.519 6.18977 27.3646 6.03532C27.2101 5.88088 27.0007 5.79412 26.7823 5.79412H23.0764C22.6395 5.79412 22.2206 5.62059 21.9117 5.31171C21.6028 5.00282 21.4293 4.58389 21.4293 4.14706ZM4.54696 20.5551C4.98379 20.5551 5.40272 20.7286 5.71161 21.0375C6.02049 21.3464 6.19402 21.7653 6.19402 22.2021V26.3824C6.19402 26.6008 6.28078 26.8102 6.43523 26.9647C6.58967 27.1191 6.79914 27.2059 7.01755 27.2059H10.7234C11.1603 27.2059 11.5792 27.3794 11.8881 27.6883C12.197 27.9972 12.3705 28.4161 12.3705 28.8529C12.3705 29.2898 12.197 29.7087 11.8881 30.0176C11.5792 30.3265 11.1603 30.5 10.7234 30.5H7.01755C5.92548 30.5 4.87814 30.0662 4.10593 29.294C3.33372 28.5218 2.8999 27.4744 2.8999 26.3824V22.2005C2.8999 21.7636 3.07343 21.3447 3.38231 21.0358C3.6912 20.7269 4.11013 20.5551 4.54696 20.5551ZM29.2528 21.0278C29.6897 21.0278 30.1086 21.2013 30.4175 21.5102C30.7264 21.8191 30.8999 22.238 30.8999 22.6748V26.3824C30.8999 27.4744 30.4661 28.5218 29.6939 29.294C28.9217 30.0662 27.8743 30.5 26.7823 30.5H23.0764C22.6395 30.5 22.2206 30.3265 21.9117 30.0176C21.6028 29.7087 21.4293 29.2898 21.4293 28.8529C21.4293 28.4161 21.6028 27.9972 21.9117 27.6883C22.2206 27.3794 22.6395 27.2059 23.0764 27.2059H26.7823C27.0007 27.2059 27.2101 27.1191 27.3646 26.9647C27.519 26.8102 27.6058 26.6008 27.6058 26.3824V22.6765C27.6058 22.2396 27.7793 21.8207 28.0882 21.5118C28.3971 21.2029 28.816 21.0294 29.2528 21.0294" fill="#7E7E7E"/>
<path d="M15.1983 15.9615C15.5279 15.9615 15.8543 15.8966 16.1588 15.7704C16.4634 15.6443 16.7401 15.4594 16.9732 15.2263C17.2062 14.9932 17.3911 14.7165 17.5173 14.412C17.6434 14.1075 17.7083 13.7811 17.7083 13.4515C17.7083 13.1218 17.6434 12.7954 17.5173 12.4909C17.3911 12.1864 17.2062 11.9097 16.9732 11.6766C16.7401 11.4435 16.4634 11.2586 16.1588 11.1325C15.8543 11.0063 15.5279 10.9414 15.1983 10.9414C14.5326 10.9414 13.8941 11.2059 13.4234 11.6766C12.9527 12.1473 12.6882 12.7857 12.6882 13.4515C12.6882 14.1172 12.9527 14.7556 13.4234 15.2263C13.8941 15.697 14.5326 15.9615 15.1983 15.9615Z" fill="#7E7E7E" stroke="#7E7E7E" stroke-width="2" stroke-linecap="round" stroke-linejoin="round"/>
<path d="M20.2183 11.6585C20.2183 11.6585 21.0251 13.2721 20.2183 15.2443M22.7283 10.2242C22.7283 10.2242 24.3419 13.1287 22.7283 16.6786" stroke="#7E7E7E" stroke-width="2" stroke-linecap="round" stroke-linejoin="round"/>
<path d="M9.81958 23.4199V23.8502H20.5769V23.4199C20.5769 21.8134 20.5769 21.0102 20.2642 20.3963C19.9892 19.8566 19.5504 19.4178 19.0107 19.1428C18.3968 18.8301 17.5936 18.8301 15.9871 18.8301H14.4094C12.8029 18.8301 11.9997 18.8301 11.3858 19.1428C10.8461 19.4178 10.4073 19.8566 10.1323 20.3963C9.81958 21.0102 9.81958 21.8134 9.81958 23.4199Z" fill="#7E7E7E" stroke="#7E7E7E" stroke-width="2" stroke-linecap="round" stroke-linejoin="round"/>
</svg>
